<svg xmlns="http://www.w3.org/2000/svg" width="1600" height="1100" viewBox="0 0 1600 1100">
  <defs>
    <linearGradient id="backdrop" x1="0" y1="0" x2="1" y2="1"><stop offset="0" stop-color="#F8F1EA"/><stop offset="0.48" stop-color="#EEDFD6"/><stop offset="1" stop-color="#E4D1C8"/></linearGradient><linearGradient id="window" x1="0" y1="0" x2="1" y2="1"><stop offset="0" stop-color="#FFFDF9" stop-opacity="0.92"/><stop offset="1" stop-color="#F7EEE7" stop-opacity="0.86"/></linearGradient><linearGradient id="surface" x1="0" y1="0" x2="1" y2="1"><stop offset="0" stop-color="#FFFDF9" stop-opacity="0.94"/><stop offset="1" stop-color="#FBF3EC" stop-opacity="0.84"/></linearGradient><filter id="blur45" x="-20%" y="-20%" width="140%" height="140%"><feGaussianBlur stdDeviation="45"/></filter><filter id="shadow" x="-20%" y="-20%" width="140%" height="140%"><feDropShadow dx="0" dy="24" stdDeviation="26" flood-color="#806456" flood-opacity="0.20"/></filter><filter id="cardShadow" x="-20%" y="-20%" width="140%" height="140%"><feDropShadow dx="0" dy="10" stdDeviation="15" flood-color="#9A7668" flood-opacity="0.10"/></filter><clipPath id="canvasClip"><rect width="1600" height="1100" rx="34"/></clipPath>
  </defs>
  <g clip-path="url(#canvasClip)">
    <rect width="1600" height="1100" fill="url(#backdrop)"/><circle cx="160" cy="170" r="240" fill="#F5BEA7" opacity="0.34" filter="url(#blur45)"/><circle cx="1430" cy="160" r="250" fill="#F2D4A8" opacity="0.28" filter="url(#blur45)"/><circle cx="1180" cy="1020" r="330" fill="#EFC6BD" opacity="0.26" filter="url(#blur45)"/><rect x="74" y="64" width="1452" height="968" rx="32" fill="#FFFFFF" fill-opacity="0.20" stroke="#FFFFFF" stroke-opacity="0.55" stroke-width="2"/><rect x="105" y="96" width="1390" height="54" rx="17" fill="#FFFFFF" fill-opacity="0.30"/><circle cx="138" cy="123" r="8" fill="#E9B69D"/><circle cx="166" cy="123" r="8" fill="#E8CEA4"/><circle cx="194" cy="123" r="8" fill="#BBC6A7"/><rect x="1246" y="114" width="208" height="18" rx="9" fill="#FFFFFF" fill-opacity="0.34"/>
    <g filter="url(#shadow)">
      <rect x="170" y="176" width="1260" height="746" rx="26" fill="url(#window)" stroke="#FFFFFF" stroke-opacity="0.92" stroke-width="2"/><rect x="170" y="176" width="1260" height="96" rx="26" fill="#FFFDF9" fill-opacity="0.46"/><line x1="170" y1="272" x2="1430" y2="272" stroke="#E8DED5"/><circle cx="214" cy="224" r="22" fill="#D98663"/><path d="M203 224 C203 217 208 213 212 216 C215 210 221 212 222 217 C228 216 231 222 228 227 C224 233 207 233 203 224Z" fill="#FFFDF9"/><circle cx="211" cy="223" r="1.8" fill="#D98663"/><circle cx="220" cy="223" r="1.8" fill="#D98663"/><text x="252" y="218" fill="#4B4641" font-family="Segoe UI, Microsoft YaHei, sans-serif" font-size="22" font-weight="700">PetNest 设置中心</text><text x="252" y="242" fill="#9A8B82" font-family="Segoe UI, Microsoft YaHei, sans-serif" font-size="13">让桌宠更贴合你的桌面与工作节奏</text><text x="1392" y="226" text-anchor="end" fill="#A7978E" font-family="Segoe UI, Microsoft YaHei, sans-serif" font-size="24">×</text>
      <rect x="192" y="294" width="246" height="592" rx="18" fill="#FBF4EE" fill-opacity="0.70"/><text x="220" y="334" fill="#A7978E" font-family="Segoe UI, Microsoft YaHei, sans-serif" font-size="12" font-weight="700" letter-spacing="1.3">偏好设置</text><g font-family="Segoe UI, Microsoft YaHei, sans-serif" font-size="16"><text x="248" y="388" fill="#6A605A">显示与窗口</text><text x="248" y="438" fill="#6A605A">鼠标与行为</text><text x="248" y="488" fill="#6A605A">系统空闲</text><text x="248" y="538" fill="#6A605A">工作倒计时</text><rect x="208" y="558" width="214" height="48" rx="13" fill="#FFF0E8"/><circle cx="230" cy="582" r="4" fill="#D98663"/><text x="248" y="588" fill="#A85D3E" font-weight="700">应用与更新</text></g><line x1="220" y1="644" x2="410" y2="644" stroke="#E8DED5"/><text x="220" y="680" fill="#A7978E" font-family="Segoe UI, Microsoft YaHei, sans-serif" font-size="12" font-weight="700" letter-spacing="1.3">当前状态</text><rect x="216" y="704" width="198" height="76" rx="15" fill="#FFFFFF" fill-opacity="0.54"/><circle cx="240" cy="732" r="6" fill="#6D9A7A"/><text x="258" y="737" fill="#6B625D" font-family="Segoe UI, Microsoft YaHei, sans-serif" font-size="14">桌宠在线</text><text x="234" y="761" fill="#A7978E" font-family="Segoe UI, Microsoft YaHei, sans-serif" font-size="12">当前宠物 · 小平安</text>
      <text x="486" y="340" fill="#4B4641" font-family="Segoe UI, Microsoft YaHei, sans-serif" font-size="28" font-weight="700">应用与更新</text><text x="486" y="370" fill="#94867E" font-family="Segoe UI, Microsoft YaHei, sans-serif" font-size="14">管理程序版本和资源更新</text>
      <g filter="url(#cardShadow)"><rect x="486" y="404" width="888" height="214" rx="20" fill="url(#surface)" stroke="#FFFFFF" stroke-opacity="0.90"/></g><text x="520" y="447" fill="#6B5B54" font-family="Segoe UI, Microsoft YaHei, sans-serif" font-size="17" font-weight="700">程序版本</text><text x="520" y="472" fill="#A7978E" font-family="Segoe UI, Microsoft YaHei, sans-serif" font-size="13">保持 PetNest 处于最新状态</text><text x="520" y="532" fill="#5C524D" font-family="Segoe UI, Microsoft YaHei, sans-serif" font-size="15" font-weight="600">当前版本</text><text x="790" y="532" fill="#6B625D" font-family="Segoe UI, Microsoft YaHei, sans-serif" font-size="15">v0.1.3</text><rect x="1114" y="507" width="224" height="42" rx="12" fill="#D98663"/><text x="1226" y="534" text-anchor="middle" fill="#FFFDF9" font-family="Segoe UI, Microsoft YaHei, sans-serif" font-size="14" font-weight="700">检查程序更新…</text>
      <g filter="url(#cardShadow)"><rect x="486" y="646" width="888" height="150" rx="20" fill="url(#surface)" stroke="#FFFFFF" stroke-opacity="0.90"/></g><text x="520" y="689" fill="#6B5B54" font-family="Segoe UI, Microsoft YaHei, sans-serif" font-size="17" font-weight="700">资源</text><text x="520" y="714" fill="#A7978E" font-family="Segoe UI, Microsoft YaHei, sans-serif" font-size="13">宠物和动效资源由托盘菜单管理</text><text x="520" y="761" fill="#5C524D" font-family="Segoe UI, Microsoft YaHei, sans-serif" font-size="15" font-weight="600">资源更新</text><text x="780" y="761" fill="#6D9A7A" font-family="Segoe UI, Microsoft YaHei, sans-serif" font-size="13">托盘入口可用</text><rect x="1114" y="736" width="224" height="42" rx="12" fill="#FFFDF9" stroke="#E3D4CB"/><text x="1226" y="763" text-anchor="middle" fill="#85766E" font-family="Segoe UI, Microsoft YaHei, sans-serif" font-size="14" font-weight="600">打开托盘菜单</text>
      <rect x="486" y="818" width="888" height="40" rx="14" fill="#F4ECE6"/><circle cx="518" cy="838" r="5" fill="#6D9A7A"/><text x="538" y="843" fill="#8E7F76" font-family="Segoe UI, Microsoft YaHei, sans-serif" font-size="12">程序更新和资源更新彼此独立</text>
      <line x1="462" y1="858" x2="1408" y2="858" stroke="#E8DED5"/><text x="486" y="882" fill="#A7978E" font-family="Segoe UI, Microsoft YaHei, sans-serif" font-size="12">更新检查不会改变当前桌宠设置</text><rect x="1158" y="870" width="112" height="36" rx="12" fill="#FFFDF9" stroke="#E3D4CB"/><text x="1214" y="893" text-anchor="middle" fill="#85766E" font-family="Segoe UI, Microsoft YaHei, sans-serif" font-size="13" font-weight="600">取消</text><rect x="1280" y="870" width="128" height="36" rx="12" fill="#D98663"/><text x="1344" y="893" text-anchor="middle" fill="#FFFDF9" font-family="Segoe UI, Microsoft YaHei, sans-serif" font-size="13" font-weight="700">应用并关闭</text>
    </g>
    <text x="110" y="982" fill="#6E625C" font-family="Segoe UI, Microsoft YaHei, sans-serif" font-size="22" font-weight="600" letter-spacing="1">PETNEST · SETTINGS CENTER</text><text x="110" y="1018" fill="#9B8D84" font-family="Segoe UI, Microsoft YaHei, sans-serif" font-size="17">设置中心 · 应用与更新</text><text x="1490" y="1018" text-anchor="end" fill="#B09F95" font-family="Segoe UI, Microsoft YaHei, sans-serif" font-size="15">暖色奶油风 · 06 / 10</text>
  </g>
</svg>
